<mxfile host="app.diagrams.net" modified="2022-01-09T06:35:38.667Z" agent="5.0 (Macintosh; Intel Mac OS X 10_15_3) AppleWebKit/537.36 (KHTML, like Gecko) Chrome/96.0.4664.110 Safari/537.36" etag="Un0__DnsGI3i9iLJpBNX" version="16.1.4" type="github" pages="2">
  <diagram id="-r0gdD85DYOE3kNhME83" name="老链路">
    <mxGraphModel dx="815" dy="542" grid="1" gridSize="10" guides="1" tooltips="1" connect="1" arrows="1" fold="1" page="1" pageScale="1" pageWidth="827" pageHeight="1169" math="0" shadow="0">
      <root>
        <mxCell id="0" />
        <mxCell id="1" parent="0" />
        <mxCell id="BxEVgaVwpEIvl3k_Xmzb-2" value="老活动链路" style="rounded=0;whiteSpace=wrap;html=1;" vertex="1" parent="1">
          <mxGeometry x="20" y="10" width="50" height="580" as="geometry" />
        </mxCell>
        <mxCell id="BxEVgaVwpEIvl3k_Xmzb-65" style="edgeStyle=orthogonalEdgeStyle;rounded=0;orthogonalLoop=1;jettySize=auto;html=1;exitX=0.5;exitY=1;exitDx=0;exitDy=0;entryX=0.325;entryY=-0.075;entryDx=0;entryDy=0;entryPerimeter=0;fontColor=#FFFFFF;startArrow=none;startFill=0;" edge="1" parent="1" source="BxEVgaVwpEIvl3k_Xmzb-7" target="BxEVgaVwpEIvl3k_Xmzb-64">
          <mxGeometry relative="1" as="geometry" />
        </mxCell>
        <mxCell id="BxEVgaVwpEIvl3k_Xmzb-7" value="&amp;nbsp; &amp;nbsp; &amp;nbsp;轩辕PC" style="rounded=1;whiteSpace=wrap;html=1;fillColor=#fad7ac;strokeColor=#b46504;" vertex="1" parent="1">
          <mxGeometry x="266.5" y="20" width="110" height="40" as="geometry" />
        </mxCell>
        <mxCell id="BxEVgaVwpEIvl3k_Xmzb-68" style="edgeStyle=orthogonalEdgeStyle;rounded=0;orthogonalLoop=1;jettySize=auto;html=1;exitX=0.5;exitY=1;exitDx=0;exitDy=0;entryX=0.5;entryY=0;entryDx=0;entryDy=0;fontColor=#FFFFFF;startArrow=none;startFill=0;" edge="1" parent="1" source="BxEVgaVwpEIvl3k_Xmzb-9" target="BxEVgaVwpEIvl3k_Xmzb-10">
          <mxGeometry relative="1" as="geometry" />
        </mxCell>
        <mxCell id="BxEVgaVwpEIvl3k_Xmzb-78" value="活动操作" style="edgeLabel;html=1;align=center;verticalAlign=middle;resizable=0;points=[];fontColor=#000000;" vertex="1" connectable="0" parent="BxEVgaVwpEIvl3k_Xmzb-68">
          <mxGeometry x="-0.3925" relative="1" as="geometry">
            <mxPoint as="offset" />
          </mxGeometry>
        </mxCell>
        <mxCell id="BxEVgaVwpEIvl3k_Xmzb-73" style="edgeStyle=orthogonalEdgeStyle;rounded=0;orthogonalLoop=1;jettySize=auto;html=1;exitX=1;exitY=0.5;exitDx=0;exitDy=0;entryX=0;entryY=0.5;entryDx=0;entryDy=0;entryPerimeter=0;fontColor=#000000;startArrow=none;startFill=0;" edge="1" parent="1" source="BxEVgaVwpEIvl3k_Xmzb-9" target="BxEVgaVwpEIvl3k_Xmzb-72">
          <mxGeometry relative="1" as="geometry" />
        </mxCell>
        <mxCell id="BxEVgaVwpEIvl3k_Xmzb-9" value="play.valyria&lt;br&gt;BD产品系统" style="rounded=1;whiteSpace=wrap;html=1;fillColor=#fa6800;fontColor=#000000;strokeColor=#C73500;" vertex="1" parent="1">
          <mxGeometry x="384.5" y="194" width="120" height="60" as="geometry" />
        </mxCell>
        <mxCell id="BxEVgaVwpEIvl3k_Xmzb-81" style="edgeStyle=orthogonalEdgeStyle;rounded=0;orthogonalLoop=1;jettySize=auto;html=1;exitX=0;exitY=0.5;exitDx=0;exitDy=0;fontSize=10;fontColor=#000000;startArrow=none;startFill=0;" edge="1" parent="1" source="BxEVgaVwpEIvl3k_Xmzb-10" target="BxEVgaVwpEIvl3k_Xmzb-76">
          <mxGeometry relative="1" as="geometry" />
        </mxCell>
        <mxCell id="BxEVgaVwpEIvl3k_Xmzb-86" style="edgeStyle=orthogonalEdgeStyle;rounded=0;orthogonalLoop=1;jettySize=auto;html=1;exitX=0.5;exitY=1;exitDx=0;exitDy=0;fontSize=10;fontColor=#000000;startArrow=none;startFill=0;" edge="1" parent="1" source="BxEVgaVwpEIvl3k_Xmzb-10" target="BxEVgaVwpEIvl3k_Xmzb-11">
          <mxGeometry relative="1" as="geometry" />
        </mxCell>
        <mxCell id="BxEVgaVwpEIvl3k_Xmzb-87" value="活动操作" style="edgeLabel;html=1;align=center;verticalAlign=middle;resizable=0;points=[];fontSize=10;fontColor=#000000;" vertex="1" connectable="0" parent="BxEVgaVwpEIvl3k_Xmzb-86">
          <mxGeometry x="-0.0174" y="-3" relative="1" as="geometry">
            <mxPoint as="offset" />
          </mxGeometry>
        </mxCell>
        <mxCell id="BxEVgaVwpEIvl3k_Xmzb-10" value="play.doraemon&lt;br&gt;行业玩法" style="rounded=1;whiteSpace=wrap;html=1;fillColor=#dae8fc;strokeColor=#6c8ebf;gradientColor=#7ea6e0;" vertex="1" parent="1">
          <mxGeometry x="384.5" y="371" width="120" height="60" as="geometry" />
        </mxCell>
        <mxCell id="BxEVgaVwpEIvl3k_Xmzb-89" style="edgeStyle=orthogonalEdgeStyle;rounded=0;orthogonalLoop=1;jettySize=auto;html=1;exitX=1;exitY=0.5;exitDx=0;exitDy=0;entryX=0;entryY=0.5;entryDx=0;entryDy=0;fontSize=13;fontColor=#000000;startArrow=none;startFill=0;" edge="1" parent="1" source="BxEVgaVwpEIvl3k_Xmzb-11" target="BxEVgaVwpEIvl3k_Xmzb-88">
          <mxGeometry relative="1" as="geometry" />
        </mxCell>
        <mxCell id="BxEVgaVwpEIvl3k_Xmzb-90" value="sync" style="edgeLabel;html=1;align=center;verticalAlign=middle;resizable=0;points=[];fontSize=13;fontColor=#000000;" vertex="1" connectable="0" parent="BxEVgaVwpEIvl3k_Xmzb-89">
          <mxGeometry x="-0.0491" y="3" relative="1" as="geometry">
            <mxPoint as="offset" />
          </mxGeometry>
        </mxCell>
        <mxCell id="BxEVgaVwpEIvl3k_Xmzb-11" value="marketing.maintainer&lt;br&gt;弹外活动底层" style="rounded=1;whiteSpace=wrap;html=1;fillColor=#dae8fc;strokeColor=#6c8ebf;gradientColor=#7ea6e0;" vertex="1" parent="1">
          <mxGeometry x="379.5" y="508" width="130" height="60" as="geometry" />
        </mxCell>
        <mxCell id="BxEVgaVwpEIvl3k_Xmzb-84" style="edgeStyle=orthogonalEdgeStyle;rounded=0;orthogonalLoop=1;jettySize=auto;html=1;exitX=1;exitY=0.5;exitDx=0;exitDy=0;fontSize=10;fontColor=#000000;startArrow=none;startFill=0;" edge="1" parent="1" source="BxEVgaVwpEIvl3k_Xmzb-49" target="BxEVgaVwpEIvl3k_Xmzb-9">
          <mxGeometry relative="1" as="geometry" />
        </mxCell>
        <mxCell id="BxEVgaVwpEIvl3k_Xmzb-85" value="状态同步" style="edgeLabel;html=1;align=center;verticalAlign=middle;resizable=0;points=[];fontSize=10;fontColor=#000000;" vertex="1" connectable="0" parent="BxEVgaVwpEIvl3k_Xmzb-84">
          <mxGeometry x="-0.1361" y="3" relative="1" as="geometry">
            <mxPoint x="-1" as="offset" />
          </mxGeometry>
        </mxCell>
        <mxCell id="BxEVgaVwpEIvl3k_Xmzb-49" value="play.watchman&lt;br&gt;玩法调度服务" style="rounded=1;whiteSpace=wrap;html=1;fillColor=#dae8fc;gradientColor=#7ea6e0;strokeColor=#6c8ebf;" vertex="1" parent="1">
          <mxGeometry x="114" y="194" width="120" height="60" as="geometry" />
        </mxCell>
        <mxCell id="BxEVgaVwpEIvl3k_Xmzb-66" style="edgeStyle=orthogonalEdgeStyle;rounded=0;orthogonalLoop=1;jettySize=auto;html=1;exitX=0.5;exitY=1;exitDx=0;exitDy=0;entryX=0.674;entryY=0.037;entryDx=0;entryDy=0;entryPerimeter=0;fontColor=#FFFFFF;startArrow=none;startFill=0;" edge="1" parent="1" source="BxEVgaVwpEIvl3k_Xmzb-60" target="BxEVgaVwpEIvl3k_Xmzb-64">
          <mxGeometry relative="1" as="geometry" />
        </mxCell>
        <mxCell id="BxEVgaVwpEIvl3k_Xmzb-60" value="&amp;nbsp; &amp;nbsp; &amp;nbsp;轩辕APP" style="rounded=1;whiteSpace=wrap;html=1;fillColor=#dae8fc;strokeColor=#6c8ebf;" vertex="1" parent="1">
          <mxGeometry x="504" y="20" width="110" height="40" as="geometry" />
        </mxCell>
        <mxCell id="BxEVgaVwpEIvl3k_Xmzb-62" value="" style="image;html=1;image=img/lib/clip_art/telecommunication/iPhone_128x128.png" vertex="1" parent="1">
          <mxGeometry x="516.5" y="26" width="30" height="30" as="geometry" />
        </mxCell>
        <mxCell id="BxEVgaVwpEIvl3k_Xmzb-63" value="" style="image;html=1;image=img/lib/clip_art/computers/iMac_128x128.png" vertex="1" parent="1">
          <mxGeometry x="266.5" y="26" width="40" height="30" as="geometry" />
        </mxCell>
        <mxCell id="BxEVgaVwpEIvl3k_Xmzb-67" style="edgeStyle=orthogonalEdgeStyle;rounded=0;orthogonalLoop=1;jettySize=auto;html=1;exitX=0.5;exitY=1;exitDx=0;exitDy=0;entryX=0.5;entryY=0;entryDx=0;entryDy=0;fontColor=#FFFFFF;startArrow=none;startFill=0;" edge="1" parent="1" source="BxEVgaVwpEIvl3k_Xmzb-64" target="BxEVgaVwpEIvl3k_Xmzb-9">
          <mxGeometry relative="1" as="geometry" />
        </mxCell>
        <mxCell id="BxEVgaVwpEIvl3k_Xmzb-71" value="非模板操作" style="edgeLabel;html=1;align=center;verticalAlign=middle;resizable=0;points=[];fontColor=#000000;" vertex="1" connectable="0" parent="BxEVgaVwpEIvl3k_Xmzb-67">
          <mxGeometry x="-0.1451" relative="1" as="geometry">
            <mxPoint y="10" as="offset" />
          </mxGeometry>
        </mxCell>
        <mxCell id="BxEVgaVwpEIvl3k_Xmzb-69" style="edgeStyle=orthogonalEdgeStyle;rounded=0;orthogonalLoop=1;jettySize=auto;html=1;exitX=0.5;exitY=1;exitDx=0;exitDy=0;entryX=0.5;entryY=0;entryDx=0;entryDy=0;fontColor=#FFFFFF;startArrow=none;startFill=0;" edge="1" parent="1" source="BxEVgaVwpEIvl3k_Xmzb-64" target="BxEVgaVwpEIvl3k_Xmzb-10">
          <mxGeometry relative="1" as="geometry">
            <Array as="points">
              <mxPoint x="445" y="120" />
              <mxPoint x="764" y="120" />
              <mxPoint x="764" y="340" />
              <mxPoint x="445" y="340" />
            </Array>
          </mxGeometry>
        </mxCell>
        <mxCell id="BxEVgaVwpEIvl3k_Xmzb-70" value="模板操作" style="edgeLabel;html=1;align=center;verticalAlign=middle;resizable=0;points=[];fontColor=#000000;" vertex="1" connectable="0" parent="BxEVgaVwpEIvl3k_Xmzb-69">
          <mxGeometry x="-0.2129" relative="1" as="geometry">
            <mxPoint y="86" as="offset" />
          </mxGeometry>
        </mxCell>
        <mxCell id="BxEVgaVwpEIvl3k_Xmzb-64" value="Sopush/Httpizza" style="rounded=0;whiteSpace=wrap;html=1;fillColor=#b0e3e6;strokeColor=#0e8088;" vertex="1" parent="1">
          <mxGeometry x="99.5" y="80" width="690" height="20" as="geometry" />
        </mxCell>
        <mxCell id="BxEVgaVwpEIvl3k_Xmzb-80" style="edgeStyle=orthogonalEdgeStyle;rounded=0;orthogonalLoop=1;jettySize=auto;html=1;exitX=0.5;exitY=0;exitDx=0;exitDy=0;exitPerimeter=0;entryX=0.5;entryY=1;entryDx=0;entryDy=0;entryPerimeter=0;fontColor=#000000;startArrow=none;startFill=0;" edge="1" parent="1" source="BxEVgaVwpEIvl3k_Xmzb-72" target="BxEVgaVwpEIvl3k_Xmzb-79">
          <mxGeometry relative="1" as="geometry" />
        </mxCell>
        <mxCell id="BxEVgaVwpEIvl3k_Xmzb-72" value="valyriaDB" style="strokeWidth=2;html=1;shape=mxgraph.flowchart.database;whiteSpace=wrap;fillColor=#bac8d3;strokeColor=#23445d;" vertex="1" parent="1">
          <mxGeometry x="614" y="204" width="90" height="40" as="geometry" />
        </mxCell>
        <mxCell id="BxEVgaVwpEIvl3k_Xmzb-74" value="&lt;font style=&quot;font-size: 13px&quot;&gt;报名/工作流&lt;/font&gt;" style="text;html=1;align=center;verticalAlign=middle;resizable=0;points=[];autosize=1;strokeColor=none;fillColor=none;fontColor=#000000;fontSize=10;" vertex="1" parent="1">
          <mxGeometry x="514" y="200" width="90" height="20" as="geometry" />
        </mxCell>
        <mxCell id="BxEVgaVwpEIvl3k_Xmzb-82" style="edgeStyle=orthogonalEdgeStyle;rounded=0;orthogonalLoop=1;jettySize=auto;html=1;exitX=0;exitY=0.5;exitDx=0;exitDy=0;exitPerimeter=0;entryX=0.412;entryY=1.006;entryDx=0;entryDy=0;entryPerimeter=0;fontSize=10;fontColor=#000000;startArrow=none;startFill=0;" edge="1" parent="1" source="BxEVgaVwpEIvl3k_Xmzb-76" target="BxEVgaVwpEIvl3k_Xmzb-49">
          <mxGeometry relative="1" as="geometry" />
        </mxCell>
        <mxCell id="BxEVgaVwpEIvl3k_Xmzb-83" value="drc" style="edgeLabel;html=1;align=center;verticalAlign=middle;resizable=0;points=[];fontSize=10;fontColor=#000000;" vertex="1" connectable="0" parent="BxEVgaVwpEIvl3k_Xmzb-82">
          <mxGeometry x="0.1865" relative="1" as="geometry">
            <mxPoint as="offset" />
          </mxGeometry>
        </mxCell>
        <mxCell id="BxEVgaVwpEIvl3k_Xmzb-76" value="doraemonDB" style="strokeWidth=2;html=1;shape=mxgraph.flowchart.database;whiteSpace=wrap;fillColor=#bac8d3;strokeColor=#23445d;" vertex="1" parent="1">
          <mxGeometry x="241.5" y="381" width="90" height="40" as="geometry" />
        </mxCell>
        <mxCell id="BxEVgaVwpEIvl3k_Xmzb-79" value="ES" style="strokeWidth=2;html=1;shape=mxgraph.flowchart.direct_data;whiteSpace=wrap;fillColor=#f5f5f5;gradientColor=#b3b3b3;strokeColor=#666666;" vertex="1" parent="1">
          <mxGeometry x="624" y="130" width="70" height="27" as="geometry" />
        </mxCell>
        <mxCell id="BxEVgaVwpEIvl3k_Xmzb-88" value="alsc.marketing_platform&lt;br&gt;弹内平台玩法" style="rounded=1;whiteSpace=wrap;html=1;fillColor=#dae8fc;strokeColor=#6c8ebf;gradientColor=#7ea6e0;" vertex="1" parent="1">
          <mxGeometry x="614" y="508" width="152" height="60" as="geometry" />
        </mxCell>
        <mxCell id="BxEVgaVwpEIvl3k_Xmzb-95" value="审核流" style="shape=process;whiteSpace=wrap;html=1;backgroundOutline=1;fontSize=13;fontColor=#000000;fillColor=#f0a30a;strokeColor=#BD7000;" vertex="1" parent="1">
          <mxGeometry x="480" y="239" width="83.5" height="36" as="geometry" />
        </mxCell>
      </root>
    </mxGraphModel>
  </diagram>
  <diagram name="架构升级方案" id="FhecfgWEsbUgocSpAHT3">
    <mxGraphModel dx="1019" dy="678" grid="1" gridSize="10" guides="1" tooltips="1" connect="1" arrows="1" fold="1" page="1" pageScale="1" pageWidth="827" pageHeight="1169" math="0" shadow="0">
      <root>
        <mxCell id="x5H_Bq55_kCiU4EYFPsy-0" />
        <mxCell id="x5H_Bq55_kCiU4EYFPsy-1" parent="x5H_Bq55_kCiU4EYFPsy-0" />
        <mxCell id="x5H_Bq55_kCiU4EYFPsy-2" value="新链路" style="rounded=0;whiteSpace=wrap;html=1;" vertex="1" parent="x5H_Bq55_kCiU4EYFPsy-1">
          <mxGeometry x="20" y="10" width="50" height="630" as="geometry" />
        </mxCell>
        <mxCell id="x5H_Bq55_kCiU4EYFPsy-3" style="edgeStyle=orthogonalEdgeStyle;rounded=0;orthogonalLoop=1;jettySize=auto;html=1;exitX=0.5;exitY=1;exitDx=0;exitDy=0;entryX=0.325;entryY=-0.075;entryDx=0;entryDy=0;entryPerimeter=0;fontColor=#FFFFFF;startArrow=none;startFill=0;" edge="1" parent="x5H_Bq55_kCiU4EYFPsy-1" source="x5H_Bq55_kCiU4EYFPsy-4" target="x5H_Bq55_kCiU4EYFPsy-46">
          <mxGeometry relative="1" as="geometry" />
        </mxCell>
        <mxCell id="x5H_Bq55_kCiU4EYFPsy-4" value="&amp;nbsp; &amp;nbsp; &amp;nbsp;轩辕PC" style="rounded=1;whiteSpace=wrap;html=1;fillColor=#fad7ac;strokeColor=#b46504;" vertex="1" parent="x5H_Bq55_kCiU4EYFPsy-1">
          <mxGeometry x="266.5" y="20" width="110" height="40" as="geometry" />
        </mxCell>
        <mxCell id="x5H_Bq55_kCiU4EYFPsy-5" style="edgeStyle=orthogonalEdgeStyle;rounded=0;orthogonalLoop=1;jettySize=auto;html=1;exitX=0.5;exitY=1;exitDx=0;exitDy=0;entryX=0.5;entryY=0;entryDx=0;entryDy=0;fontColor=#FFFFFF;startArrow=none;startFill=0;" edge="1" parent="x5H_Bq55_kCiU4EYFPsy-1" source="x5H_Bq55_kCiU4EYFPsy-8" target="x5H_Bq55_kCiU4EYFPsy-12">
          <mxGeometry relative="1" as="geometry" />
        </mxCell>
        <mxCell id="x5H_Bq55_kCiU4EYFPsy-6" value="活动操作" style="edgeLabel;html=1;align=center;verticalAlign=middle;resizable=0;points=[];fontColor=#000000;" vertex="1" connectable="0" parent="x5H_Bq55_kCiU4EYFPsy-5">
          <mxGeometry x="-0.3925" relative="1" as="geometry">
            <mxPoint as="offset" />
          </mxGeometry>
        </mxCell>
        <mxCell id="x5H_Bq55_kCiU4EYFPsy-7" style="edgeStyle=orthogonalEdgeStyle;rounded=0;orthogonalLoop=1;jettySize=auto;html=1;exitX=1;exitY=0.5;exitDx=0;exitDy=0;entryX=0;entryY=0.5;entryDx=0;entryDy=0;entryPerimeter=0;fontColor=#000000;startArrow=none;startFill=0;" edge="1" parent="x5H_Bq55_kCiU4EYFPsy-1" source="x5H_Bq55_kCiU4EYFPsy-8" target="x5H_Bq55_kCiU4EYFPsy-48">
          <mxGeometry relative="1" as="geometry" />
        </mxCell>
        <mxCell id="x5H_Bq55_kCiU4EYFPsy-8" value="play.valyria&lt;br&gt;BD产品系统" style="rounded=1;whiteSpace=wrap;html=1;fillColor=#fa6800;fontColor=#000000;strokeColor=#C73500;" vertex="1" parent="x5H_Bq55_kCiU4EYFPsy-1">
          <mxGeometry x="384.5" y="194" width="120" height="60" as="geometry" />
        </mxCell>
        <mxCell id="x5H_Bq55_kCiU4EYFPsy-9" style="edgeStyle=orthogonalEdgeStyle;rounded=0;orthogonalLoop=1;jettySize=auto;html=1;exitX=0;exitY=0.5;exitDx=0;exitDy=0;fontSize=10;fontColor=#000000;startArrow=none;startFill=0;" edge="1" parent="x5H_Bq55_kCiU4EYFPsy-1" source="x5H_Bq55_kCiU4EYFPsy-12" target="x5H_Bq55_kCiU4EYFPsy-52">
          <mxGeometry relative="1" as="geometry" />
        </mxCell>
        <mxCell id="x5H_Bq55_kCiU4EYFPsy-10" style="edgeStyle=orthogonalEdgeStyle;rounded=0;orthogonalLoop=1;jettySize=auto;html=1;exitX=0.5;exitY=1;exitDx=0;exitDy=0;fontSize=10;fontColor=#000000;startArrow=none;startFill=0;" edge="1" parent="x5H_Bq55_kCiU4EYFPsy-1" source="x5H_Bq55_kCiU4EYFPsy-17" target="x5H_Bq55_kCiU4EYFPsy-15">
          <mxGeometry relative="1" as="geometry" />
        </mxCell>
        <mxCell id="x5H_Bq55_kCiU4EYFPsy-11" value="灰度外" style="edgeLabel;html=1;align=center;verticalAlign=middle;resizable=0;points=[];fontSize=10;fontColor=#000000;" vertex="1" connectable="0" parent="x5H_Bq55_kCiU4EYFPsy-10">
          <mxGeometry x="-0.0174" y="-3" relative="1" as="geometry">
            <mxPoint as="offset" />
          </mxGeometry>
        </mxCell>
        <mxCell id="wNtaQT5tDaCuZS9inWpK-0" style="edgeStyle=orthogonalEdgeStyle;rounded=0;orthogonalLoop=1;jettySize=auto;html=1;exitX=0.5;exitY=1;exitDx=0;exitDy=0;entryX=0.5;entryY=0;entryDx=0;entryDy=0;fontSize=13;fontColor=#000000;startArrow=none;startFill=0;" edge="1" parent="x5H_Bq55_kCiU4EYFPsy-1" source="x5H_Bq55_kCiU4EYFPsy-12" target="x5H_Bq55_kCiU4EYFPsy-17">
          <mxGeometry relative="1" as="geometry" />
        </mxCell>
        <mxCell id="x5H_Bq55_kCiU4EYFPsy-12" value="play.doraemon&lt;br&gt;行业玩法" style="rounded=1;whiteSpace=wrap;html=1;fillColor=#dae8fc;strokeColor=#6c8ebf;gradientColor=#7ea6e0;" vertex="1" parent="x5H_Bq55_kCiU4EYFPsy-1">
          <mxGeometry x="384.5" y="350" width="120" height="60" as="geometry" />
        </mxCell>
        <mxCell id="x5H_Bq55_kCiU4EYFPsy-13" style="edgeStyle=orthogonalEdgeStyle;rounded=0;orthogonalLoop=1;jettySize=auto;html=1;exitX=1;exitY=0.5;exitDx=0;exitDy=0;entryX=0;entryY=0.5;entryDx=0;entryDy=0;fontSize=13;fontColor=#000000;startArrow=classic;startFill=1;" edge="1" parent="x5H_Bq55_kCiU4EYFPsy-1" source="x5H_Bq55_kCiU4EYFPsy-15" target="x5H_Bq55_kCiU4EYFPsy-54">
          <mxGeometry relative="1" as="geometry" />
        </mxCell>
        <mxCell id="x5H_Bq55_kCiU4EYFPsy-14" value="sync" style="edgeLabel;html=1;align=center;verticalAlign=middle;resizable=0;points=[];fontSize=13;fontColor=#000000;" vertex="1" connectable="0" parent="x5H_Bq55_kCiU4EYFPsy-13">
          <mxGeometry x="-0.0491" y="3" relative="1" as="geometry">
            <mxPoint as="offset" />
          </mxGeometry>
        </mxCell>
        <mxCell id="x5H_Bq55_kCiU4EYFPsy-15" value="marketing.maintainer&lt;br&gt;弹外活动底层" style="rounded=1;whiteSpace=wrap;html=1;fillColor=#dae8fc;strokeColor=#6c8ebf;gradientColor=#7ea6e0;" vertex="1" parent="x5H_Bq55_kCiU4EYFPsy-1">
          <mxGeometry x="246.25" y="576" width="130" height="60" as="geometry" />
        </mxCell>
        <mxCell id="wNtaQT5tDaCuZS9inWpK-1" style="edgeStyle=orthogonalEdgeStyle;rounded=0;orthogonalLoop=1;jettySize=auto;html=1;exitX=0.5;exitY=1;exitDx=0;exitDy=0;fontSize=13;fontColor=#000000;startArrow=none;startFill=0;" edge="1" parent="x5H_Bq55_kCiU4EYFPsy-1" source="x5H_Bq55_kCiU4EYFPsy-17" target="x5H_Bq55_kCiU4EYFPsy-54">
          <mxGeometry relative="1" as="geometry" />
        </mxCell>
        <mxCell id="wNtaQT5tDaCuZS9inWpK-2" value="灰度内" style="edgeLabel;html=1;align=center;verticalAlign=middle;resizable=0;points=[];fontSize=13;fontColor=#000000;" vertex="1" connectable="0" parent="wNtaQT5tDaCuZS9inWpK-1">
          <mxGeometry x="-0.0769" y="-1" relative="1" as="geometry">
            <mxPoint as="offset" />
          </mxGeometry>
        </mxCell>
        <mxCell id="x5H_Bq55_kCiU4EYFPsy-17" value="灰度&lt;br&gt;判断" style="rhombus;whiteSpace=wrap;html=1;fillColor=#e3c800;fontColor=#000000;strokeColor=#B09500;" vertex="1" parent="x5H_Bq55_kCiU4EYFPsy-1">
          <mxGeometry x="409.5" y="451" width="70" height="50" as="geometry" />
        </mxCell>
        <mxCell id="x5H_Bq55_kCiU4EYFPsy-38" style="edgeStyle=orthogonalEdgeStyle;rounded=0;orthogonalLoop=1;jettySize=auto;html=1;exitX=0.5;exitY=1;exitDx=0;exitDy=0;entryX=0.674;entryY=0.037;entryDx=0;entryDy=0;entryPerimeter=0;fontColor=#FFFFFF;startArrow=none;startFill=0;" edge="1" parent="x5H_Bq55_kCiU4EYFPsy-1" source="x5H_Bq55_kCiU4EYFPsy-39" target="x5H_Bq55_kCiU4EYFPsy-46">
          <mxGeometry relative="1" as="geometry" />
        </mxCell>
        <mxCell id="x5H_Bq55_kCiU4EYFPsy-39" value="&amp;nbsp; &amp;nbsp; &amp;nbsp;轩辕APP" style="rounded=1;whiteSpace=wrap;html=1;fillColor=#dae8fc;strokeColor=#6c8ebf;" vertex="1" parent="x5H_Bq55_kCiU4EYFPsy-1">
          <mxGeometry x="504" y="20" width="110" height="40" as="geometry" />
        </mxCell>
        <mxCell id="x5H_Bq55_kCiU4EYFPsy-40" value="" style="image;html=1;image=img/lib/clip_art/telecommunication/iPhone_128x128.png" vertex="1" parent="x5H_Bq55_kCiU4EYFPsy-1">
          <mxGeometry x="516.5" y="26" width="30" height="30" as="geometry" />
        </mxCell>
        <mxCell id="x5H_Bq55_kCiU4EYFPsy-41" value="" style="image;html=1;image=img/lib/clip_art/computers/iMac_128x128.png" vertex="1" parent="x5H_Bq55_kCiU4EYFPsy-1">
          <mxGeometry x="266.5" y="26" width="40" height="30" as="geometry" />
        </mxCell>
        <mxCell id="x5H_Bq55_kCiU4EYFPsy-42" style="edgeStyle=orthogonalEdgeStyle;rounded=0;orthogonalLoop=1;jettySize=auto;html=1;exitX=0.5;exitY=1;exitDx=0;exitDy=0;entryX=0.5;entryY=0;entryDx=0;entryDy=0;fontColor=#FFFFFF;startArrow=none;startFill=0;" edge="1" parent="x5H_Bq55_kCiU4EYFPsy-1" source="x5H_Bq55_kCiU4EYFPsy-46" target="x5H_Bq55_kCiU4EYFPsy-8">
          <mxGeometry relative="1" as="geometry" />
        </mxCell>
        <mxCell id="x5H_Bq55_kCiU4EYFPsy-46" value="Sopush/Httpizza" style="rounded=0;whiteSpace=wrap;html=1;fillColor=#b0e3e6;strokeColor=#0e8088;" vertex="1" parent="x5H_Bq55_kCiU4EYFPsy-1">
          <mxGeometry x="99.5" y="80" width="690" height="20" as="geometry" />
        </mxCell>
        <mxCell id="x5H_Bq55_kCiU4EYFPsy-47" style="edgeStyle=orthogonalEdgeStyle;rounded=0;orthogonalLoop=1;jettySize=auto;html=1;exitX=0.5;exitY=0;exitDx=0;exitDy=0;exitPerimeter=0;entryX=0.5;entryY=1;entryDx=0;entryDy=0;entryPerimeter=0;fontColor=#000000;startArrow=none;startFill=0;" edge="1" parent="x5H_Bq55_kCiU4EYFPsy-1" source="x5H_Bq55_kCiU4EYFPsy-48" target="x5H_Bq55_kCiU4EYFPsy-53">
          <mxGeometry relative="1" as="geometry" />
        </mxCell>
        <mxCell id="x5H_Bq55_kCiU4EYFPsy-48" value="valyriaDB" style="strokeWidth=2;html=1;shape=mxgraph.flowchart.database;whiteSpace=wrap;fillColor=#bac8d3;strokeColor=#23445d;" vertex="1" parent="x5H_Bq55_kCiU4EYFPsy-1">
          <mxGeometry x="614" y="204" width="90" height="40" as="geometry" />
        </mxCell>
        <mxCell id="x5H_Bq55_kCiU4EYFPsy-49" value="&lt;font style=&quot;font-size: 13px&quot;&gt;工作流&lt;/font&gt;" style="text;html=1;align=center;verticalAlign=middle;resizable=0;points=[];autosize=1;strokeColor=none;fillColor=none;fontColor=#000000;fontSize=10;" vertex="1" parent="x5H_Bq55_kCiU4EYFPsy-1">
          <mxGeometry x="540" y="204" width="60" height="20" as="geometry" />
        </mxCell>
        <mxCell id="x5H_Bq55_kCiU4EYFPsy-52" value="doraemonDB" style="strokeWidth=2;html=1;shape=mxgraph.flowchart.database;whiteSpace=wrap;fillColor=#bac8d3;strokeColor=#23445d;" vertex="1" parent="x5H_Bq55_kCiU4EYFPsy-1">
          <mxGeometry x="241.5" y="360" width="90" height="40" as="geometry" />
        </mxCell>
        <mxCell id="x5H_Bq55_kCiU4EYFPsy-53" value="ES" style="strokeWidth=2;html=1;shape=mxgraph.flowchart.direct_data;whiteSpace=wrap;fillColor=#f5f5f5;gradientColor=#b3b3b3;strokeColor=#666666;" vertex="1" parent="x5H_Bq55_kCiU4EYFPsy-1">
          <mxGeometry x="624" y="130" width="70" height="27" as="geometry" />
        </mxCell>
        <mxCell id="x5H_Bq55_kCiU4EYFPsy-54" value="alsc.marketing_platform&lt;br&gt;弹内平台玩法" style="rounded=1;whiteSpace=wrap;html=1;fillColor=#dae8fc;strokeColor=#6c8ebf;gradientColor=#7ea6e0;" vertex="1" parent="x5H_Bq55_kCiU4EYFPsy-1">
          <mxGeometry x="490.75" y="576" width="152" height="60" as="geometry" />
        </mxCell>
        <mxCell id="x5H_Bq55_kCiU4EYFPsy-55" value="审核流" style="shape=process;whiteSpace=wrap;html=1;backgroundOutline=1;fontSize=13;fontColor=#000000;fillColor=#f0a30a;strokeColor=#BD7000;" vertex="1" parent="x5H_Bq55_kCiU4EYFPsy-1">
          <mxGeometry x="480" y="239" width="83.5" height="36" as="geometry" />
        </mxCell>
      </root>
    </mxGraphModel>
  </diagram>
</mxfile>
